<svg width="153" height="25" viewBox="0 0 153 25" fill="#3C3633" xmlns="http://www.w3.org/2000/svg">
<path d="M12.6758 1.56C10.4358 1.56 8.70245 2.48 7.47578 4.32C6.27578 6.16 5.67578 8.64 5.67578 11.76C5.67578 15.3867 6.32911 18.1733 7.63578 20.12C8.94245 22.0667 10.6758 23.04 12.8358 23.04C14.1424 23.04 15.3291 22.6 16.3958 21.72C17.4891 20.8133 18.2358 19.8133 18.6358 18.72L20.2758 19.2C19.6624 20.6667 18.6891 21.9067 17.3558 22.92C16.0491 23.9067 14.2758 24.4 12.0358 24.4C8.46245 24.4 5.58245 23.24 3.39578 20.92C1.20911 18.6 0.115781 15.84 0.115781 12.64C0.115781 8.93333 1.36911 5.93333 3.87578 3.64C6.38245 1.34667 9.30245 0.199999 12.6358 0.199999C13.4091 0.199999 14.3691 0.399999 15.5158 0.799998C16.6624 1.2 17.3158 1.4 17.4758 1.4C17.7958 1.4 17.9558 1.13333 17.9558 0.599998H18.8758L19.1958 6.24H18.3158C18.1558 5.14667 17.4624 4.09333 16.2358 3.08C15.0091 2.06667 13.8224 1.56 12.6758 1.56ZM27.7414 12C27.7414 13.8133 27.9281 15.5067 28.3014 17.08C28.7014 18.6533 29.4214 20.04 30.4614 21.24C31.5014 22.44 32.8081 23.04 34.3814 23.04C35.5814 23.04 36.6081 22.7333 37.4614 22.12C38.3147 21.48 38.9681 20.6267 39.4214 19.56C39.8747 18.4933 40.1947 17.4 40.3814 16.28C40.5947 15.1333 40.7014 13.92 40.7014 12.64C40.7014 10.8533 40.5014 9.16 40.1014 7.56C39.7014 5.96 38.9814 4.56 37.9414 3.36C36.9014 2.16 35.6081 1.56 34.0614 1.56C32.8614 1.56 31.8347 1.88 30.9814 2.52C30.1281 3.16 29.4747 4.01333 29.0214 5.08C28.5681 6.14667 28.2347 7.25333 28.0214 8.4C27.8347 9.52 27.7414 10.72 27.7414 12ZM25.7814 20.84C23.4881 18.44 22.3414 15.6 22.3414 12.32C22.3414 9.04 23.5014 6.2 25.8214 3.8C28.1414 1.4 30.9414 0.199999 34.2214 0.199999C37.5014 0.199999 40.3014 1.4 42.6214 3.8C44.9414 6.2 46.1014 9.04 46.1014 12.32C46.1014 15.6 44.9281 18.44 42.5814 20.84C40.2614 23.2133 37.4747 24.4 34.2214 24.4C30.9147 24.4 28.1014 23.2133 25.7814 20.84ZM64.9923 24H47.7123L59.0323 1.8H51.3123C50.9923 1.93333 50.6723 2.33333 50.3523 3C50.059 3.64 49.9123 4.34666 49.9123 5.12H49.0723V0.599998H65.1923L53.8723 22.8H62.7523C63.0723 22.6667 63.499 22.2133 64.0323 21.44C64.5657 20.6667 64.939 19.8933 65.1523 19.12H65.9923L64.9923 24ZM68.2798 24V23.16C69.7198 23.16 70.5598 22.8933 70.7998 22.36V2.24C70.5598 1.70667 69.7198 1.44 68.2798 1.44V0.599998H84.7998V4.48H83.9598C83.9598 3.04 83.6932 2.2 83.1598 1.96H75.8798V11.16H80.4798C81.0132 10.92 81.2798 10.08 81.2798 8.64H82.1198V15.04H81.2798C81.2798 13.6 81.0132 12.76 80.4798 12.52H75.8798V22.64H83.9998C84.6665 22.3467 85.2665 21.5067 85.7998 20.12H86.5998L85.6398 24H68.2798ZM100.117 24V23.16C101.344 23.16 102.117 23 102.437 22.68L100.197 16.56H92.517L90.437 22.44C90.7037 22.92 91.5304 23.16 92.917 23.16V24H86.357V23.16C87.8237 23.16 88.6637 22.88 88.877 22.32L96.637 0.599998H99.877L107.717 22.32C107.904 22.88 108.757 23.16 110.277 23.16V24H100.117ZM96.317 5.92L92.997 15.24H99.717L96.317 5.92ZM111.053 24V23.16C112.493 23.16 113.333 22.8933 113.573 22.36V2.24C113.333 1.70667 112.493 1.44 111.053 1.44V0.599998H117.813L129.653 16.8V2.24C129.413 1.70667 128.573 1.44 127.133 1.44V0.599998H133.533V1.44C132.093 1.44 131.253 1.70667 131.013 2.24V24H129.253L114.933 4.2V22.36C115.173 22.8933 116.013 23.16 117.453 23.16V24H111.053ZM144.295 24.4C142.988 24.4 141.655 24.2 140.295 23.8C138.935 23.4 138.228 23.2 138.175 23.2C138.015 23.2 137.828 23.28 137.615 23.44C137.402 23.6 137.295 23.7867 137.295 24H136.375V17.68H137.255C137.548 19.2533 138.428 20.5467 139.895 21.56C141.362 22.5467 142.748 23.04 144.055 23.04C145.388 23.04 146.455 22.6933 147.255 22C148.082 21.28 148.495 20.3467 148.495 19.2C148.495 18.8 148.362 18.4133 148.095 18.04C147.855 17.64 147.455 17.24 146.895 16.84C146.362 16.4133 145.882 16.0667 145.455 15.8C145.028 15.5067 144.402 15.12 143.575 14.64C142.775 14.16 142.202 13.8133 141.855 13.6C138.228 11.36 136.415 8.96 136.415 6.4C136.415 4.82667 137.135 3.4 138.575 2.12C140.015 0.839999 141.628 0.199999 143.415 0.199999C144.215 0.199999 145.188 0.399999 146.335 0.799998C147.482 1.2 148.122 1.4 148.255 1.4C148.575 1.4 148.735 1.13333 148.735 0.599998H149.655L150.055 6.64H149.175C149.015 5.54667 148.295 4.42667 147.015 3.28C145.735 2.13333 144.548 1.56 143.455 1.56C142.255 1.56 141.348 1.94667 140.735 2.72C140.122 3.46667 139.815 4.26667 139.815 5.12C139.815 5.46667 139.935 5.81333 140.175 6.16C140.415 6.48 140.802 6.84 141.335 7.24C141.868 7.64 142.335 7.97333 142.735 8.24C143.135 8.48 143.748 8.84 144.575 9.32C145.402 9.8 145.975 10.1333 146.295 10.32C148.135 11.44 149.575 12.6 150.615 13.8C151.655 15 152.175 16.4267 152.175 18.08C152.175 20.0533 151.375 21.6 149.775 22.72C148.175 23.84 146.348 24.4 144.295 24.4Z" />
</svg>
